<?xml version="1.0" encoding="UTF-8" standalone="no"?>
<!-- Created with Inkscape (http://www.inkscape.org/) -->

<svg
   width="500mm"
   height="500mm"
   viewBox="0 0 500 500"
   version="1.1"
   id="svg1"
   xml:space="preserve"
   inkscape:export-filename="logo.png"
   inkscape:export-xdpi="300"
   inkscape:export-ydpi="300"
   xmlns:inkscape="http://www.inkscape.org/namespaces/inkscape"
   xmlns:sodipodi="http://sodipodi.sourceforge.net/DTD/sodipodi-0.dtd"
   xmlns="http://www.w3.org/2000/svg"
   xmlns:svg="http://www.w3.org/2000/svg"><sodipodi:namedview
     id="namedview1"
     pagecolor="#ffffff"
     bordercolor="#000000"
     borderopacity="0"
     inkscape:showpageshadow="2"
     inkscape:pageopacity="0.0"
     inkscape:pagecheckerboard="0"
     inkscape:deskcolor="#d1d1d1"
     inkscape:document-units="mm"
     inkscape:zoom="1.9705668"
     inkscape:cx="1087.5044"
     inkscape:cy="743.69467"
     inkscape:window-width="1366"
     inkscape:window-height="697"
     inkscape:window-x="-8"
     inkscape:window-y="-8"
     inkscape:window-maximized="1"
     inkscape:current-layer="layer1"><inkscape:page
       x="0"
       y="0"
       width="500"
       height="500"
       id="page2"
       margin="0"
       bleed="0" /></sodipodi:namedview><defs
     id="defs1" /><g
     inkscape:label="Layer 1"
     inkscape:groupmode="layer"
     id="layer1"><path
       style="display:inline;fill:#000000;fill-opacity:1;stroke:none;stroke-width:0.333999;stroke-linecap:square;stroke-opacity:1"
       d="m 240.54046,174.21225 1.87975,0.0671 -5.37071,-30.54588 -102.6476,-0.2014 -5.37071,30.74728 1.87975,0.0671 c 0,0 1.61121,-9.1302 6.04204,-16.11212 4.43083,-6.98192 13.35963,-11.68128 20.67722,-12.08409 7.31758,-0.4028 19.13313,-0.4028 19.13313,-0.4028 0,0 0.26854,103.05041 0.2014,104.79589 -0.0671,1.74548 0,8.45886 -4.83363,8.99593 -4.83363,0.53707 -6.31058,0.26853 -6.31058,0.26853 v 1.87975 l 40.07889,0.0671 v -1.81261 c 0,0 -6.51198,0.4028 -8.25746,-1.27554 -1.74548,-1.67835 -3.02102,-2.75249 -3.08815,-6.31058 -0.0671,-3.55809 0.0671,-106.74276 0.0671,-106.74276 0,0 17.99186,-0.93988 25.37658,1.81261 0,0 16.58208,5.10227 20.54298,26.78649 z"
       id="path1" /><path
       style="fill:#000000;fill-opacity:1;stroke:none;stroke-width:0.333999;stroke-linecap:square;stroke-opacity:1"
       d="m 251.69005,285.10947 -0.18988,2.18366 h 43.48323 v -2.18366 c 0,0 -11.58286,-0.0949 -11.96264,-4.36731 -0.37976,-4.27236 -0.0949,-104.72052 1e-5,-108.70807 0.0949,-3.98754 0.66458,-9.30427 4.65214,-10.0638 3.98753,-0.75953 7.50038,-0.56965 7.50038,-0.56965 v -2.18366 l -43.67312,-0.18988 v 2.37354 c 0,0 8.54474,-0.66459 10.82334,3.22801 2.27861,3.8926 1.70894,105.85984 1.32918,110.70184 -0.37977,4.84204 0.85447,10.15876 -11.96264,9.77898 z"
       id="path2"
       sodipodi:nodetypes="ccccsssccccssc" /><path
       style="fill:#000000;fill-opacity:1;stroke:none;stroke-width:0.333999;stroke-linecap:square;stroke-opacity:1"
       d="m 325.21888,285.10937 -0.18988,2.18366 h 43.48323 v -2.18366 c 0,0 -11.58286,-0.0949 -11.96264,-4.36731 -0.37976,-4.27236 -0.0949,-104.72052 10e-6,-108.70807 0.0949,-3.98754 0.66458,-9.30427 4.65214,-10.0638 3.98753,-0.75953 7.50038,-0.56965 7.50038,-0.56965 v -2.18366 L 325.029,159.027 v 2.37354 c 0,0 8.54474,-0.66459 10.82334,3.22801 2.27861,3.8926 1.70894,105.85984 1.32918,110.70184 -0.37977,4.84204 0.85447,10.15876 -11.96264,9.77898 z"
       id="path3"
       sodipodi:nodetypes="ccccsssccccssc" /><path
       style="fill:none;fill-opacity:1;stroke:#000000;stroke-width:2;stroke-linecap:square;stroke-dasharray:none;stroke-opacity:1"
       d="m 366.62112,286.35282 c 0,0 22.69125,2.81964 36.38654,-16.64917 13.69531,-19.46881 8.38836,-39.3004 0.86937,-49.2362 -7.51898,-9.93581 -19.20028,-17.58906 -34.23824,-17.05199 -15.03799,0.53707 -17.4548,5.77351 -17.4548,5.77351"
       id="path5"
       sodipodi:nodetypes="csssc" /><path
       style="fill:none;fill-opacity:1;stroke:#000000;stroke-width:2;stroke-linecap:square;stroke-dasharray:none;stroke-opacity:1"
       d="m 281.40676,221.4037 h 57.72446"
       id="path6" /><path
       style="fill:none;fill-opacity:1;stroke:#000000;stroke-width:2;stroke-linecap:square;stroke-dasharray:none;stroke-opacity:1"
       d="m 338.15303,218.92337 c 0,0 -18.95954,22.41805 -32.25136,45.20402 -13.29182,22.78598 -31.776,48.71109 -51.64819,66.26922 -17.76867,15.69956 -40.80579,30.3487 -62.66143,32.47001 -23.77208,2.30732 -42.7237,-6.26616 -55.44587,-14.05136 -12.72216,-7.78521 -32.2702,-27.81168 -37.027196,-49.55949 -4.66436,-21.32429 -3.607783,-38.35639 9.114386,-62.85131 12.72217,-24.49492 43.67311,-44.24276 71.39604,-44.81241"
       id="path7"
       sodipodi:nodetypes="cssssssc" /><path
       style="fill:none;fill-opacity:1;stroke:#000000;stroke-width:0.969738;stroke-linecap:square;stroke-dasharray:none;stroke-opacity:1"
       d="m 162.7995,313.34354 v -9.28041"
       id="path8" /><path
       style="fill:none;fill-opacity:1;stroke:#000000;stroke-width:0.987569;stroke-linecap:square;stroke-dasharray:none;stroke-opacity:1"
       d="M 178.24028,313.25874 V 303.6339"
       id="path9" /><path
       style="fill:none;fill-opacity:1;stroke:#000000;stroke-width:0.987569;stroke-linecap:square;stroke-dasharray:none;stroke-opacity:1"
       d="M 184.01379,313.25874 V 303.6339"
       id="path10" /><path
       style="fill:none;fill-opacity:1;stroke:#000000;stroke-width:0.978153;stroke-linecap:square;stroke-dasharray:none;stroke-opacity:1"
       d="M 197.70909,312.99958 V 303.5574"
       id="path11" /><path
       style="fill:none;fill-opacity:1;stroke:#000000;stroke-width:0.987569;stroke-linecap:square;stroke-dasharray:none;stroke-opacity:1"
       d="m 231.276,313.12448 v -9.62484"
       id="path12" /><path
       style="fill:none;fill-opacity:1;stroke:#000000;stroke-width:0.987569;stroke-linecap:square;stroke-dasharray:none;stroke-opacity:1"
       d="m 236.91524,313.12448 v -9.62484"
       id="path13" /><path
       style="fill:none;fill-opacity:1;stroke:#000000;stroke-width:0.987569;stroke-linecap:square;stroke-dasharray:none;stroke-opacity:1"
       d="m 290.83591,313.05107 -0.11867,-9.46463"
       id="path14"
       sodipodi:nodetypes="cc" /><path
       style="fill:none;fill-opacity:1;stroke:#000000;stroke-width:0.987569;stroke-linecap:square;stroke-dasharray:none;stroke-opacity:1"
       d="m 309.35262,313.05735 v -9.62484"
       id="path15" /><path
       style="fill:none;fill-opacity:1;stroke:#000000;stroke-width:0.987569;stroke-linecap:square;stroke-dasharray:none;stroke-opacity:1"
       d="m 315.12613,312.99022 v -9.62484"
       id="path16" /><path
       style="fill:none;fill-opacity:1;stroke:#000000;stroke-width:1;stroke-linecap:square;stroke-dasharray:none;stroke-opacity:1"
       d="m 160.18128,303.7805 h 5.1693"
       id="path17" /><path
       style="fill:none;fill-opacity:1;stroke:#000000;stroke-width:1;stroke-linecap:square;stroke-dasharray:none;stroke-opacity:1"
       d="m 178.24028,308.1442 h 5.5721"
       id="path18" /><path
       style="fill:none;fill-opacity:1;stroke:#000000;stroke-width:1;stroke-linecap:square;stroke-dasharray:none;stroke-opacity:1"
       d="m 197.84335,303.5791 5.37071,0.0672"
       id="path19" /><path
       style="fill:none;fill-opacity:1;stroke:#000000;stroke-width:1;stroke-linecap:square;stroke-dasharray:none;stroke-opacity:1"
       d="m 197.77622,308.21135 h 5.3707"
       id="path20" /><path
       style="fill:none;fill-opacity:1;stroke:#000000;stroke-width:1;stroke-linecap:square;stroke-dasharray:none;stroke-opacity:1"
       d="m 197.84335,312.97784 h 5.16931"
       id="path21" /><path
       style="fill:none;fill-opacity:1;stroke:#000000;stroke-width:1;stroke-linecap:square;stroke-dasharray:none;stroke-opacity:1"
       d="m 231.41026,308.1442 h 5.3707"
       id="path22" /><path
       style="fill:none;fill-opacity:1;stroke:#000000;stroke-width:1;stroke-linecap:square;stroke-dasharray:none;stroke-opacity:1"
       d="m 251.349,310.09108 4.63224,-0.2014"
       id="path25" /><path
       style="fill:none;fill-opacity:1;stroke:#000000;stroke-width:1;stroke-linecap:square;stroke-dasharray:none;stroke-opacity:1"
       d="m 269.47513,303.3777 4.29657,9.66727 3.69236,-9.80152"
       id="path26" /><path
       style="fill:none;fill-opacity:1;stroke:#000000;stroke-width:1;stroke-linecap:square;stroke-dasharray:none;stroke-opacity:1"
       d="m 290.71688,303.5791 h 5.20896"
       id="path27"
       sodipodi:nodetypes="cc" /><path
       style="fill:none;fill-opacity:1;stroke:#000000;stroke-width:1;stroke-linecap:square;stroke-dasharray:none;stroke-opacity:1"
       d="m 290.84045,307.9428 h 5.01827"
       id="path28"
       sodipodi:nodetypes="cc" /><path
       style="fill:none;fill-opacity:1;stroke:#000000;stroke-width:1;stroke-linecap:square;stroke-dasharray:none;stroke-opacity:1"
       d="m 290.82367,313.04497 5.03505,-0.0671"
       id="path29" /><path
       style="fill:none;fill-opacity:1;stroke:#000000;stroke-width:1;stroke-linecap:square;stroke-dasharray:none;stroke-opacity:1"
       d="m 309.66119,303.66182 5.18419,9.07529"
       id="path30"
       sodipodi:nodetypes="cc" /><path
       style="fill:none;fill-opacity:1;stroke:#000000;stroke-width:1;stroke-linecap:square;stroke-dasharray:none;stroke-opacity:1"
       d="m 328.55289,311.16524 c 0,0 0.63201,1.88789 2.76062,1.99841 2.08268,0.10813 3.32411,-0.65098 3.75135,-1.79701 0.23452,-0.62907 0.31194,-2.17203 -2.14828,-3.02102 -2.48878,-0.85885 -4.07073,-0.93174 -4.02802,-2.68536 0.0409,-1.67783 3.25362,-3.35331 5.5721,-0.93988"
       id="path31"
       sodipodi:nodetypes="cssssc" /><path
       style="fill:none;fill-opacity:1;stroke:#000000;stroke-width:1;stroke-linecap:square;stroke-dasharray:none;stroke-opacity:1"
       d="m 257.69365,313.42985 -4.01092,-9.78923 -3.97851,9.6889"
       id="path32" /></g></svg>
